<svg xmlns="http://www.w3.org/2000/svg" viewBox="0 0 1600 900" role="img" aria-labelledby="title desc">
  <title id="title">Korean corporate capital policy cover</title>
  <desc id="desc">An original editorial cover showing corporate structures, communication, and market signals.</desc>
  <defs>
    <linearGradient id="bg" x1="0%" y1="0%" x2="100%" y2="100%">
      <stop offset="0%" stop-color="#101f31" />
      <stop offset="58%" stop-color="#1e425c" />
      <stop offset="100%" stop-color="#efc98b" />
    </linearGradient>
    <filter id="shadow" x="-20%" y="-20%" width="140%" height="140%">
      <feDropShadow dx="0" dy="18" stdDeviation="22" flood-color="#05131d" flood-opacity="0.28" />
    </filter>
  </defs>
  <rect width="1600" height="900" fill="url(#bg)" />
  <circle cx="1280" cy="170" r="170" fill="#ffffff" fill-opacity="0.08" />
  <circle cx="240" cy="760" r="220" fill="#7ee7c1" fill-opacity="0.09" />
  <g filter="url(#shadow)">
    <rect x="150" y="150" width="520" height="600" rx="40" fill="#112b3d" />
    <rect x="760" y="150" width="690" height="600" rx="40" fill="#fff3df" fill-opacity="0.95" />
  </g>
  <g>
    <rect x="245" y="425" width="310" height="210" rx="22" fill="#183a52" />
    <rect x="305" y="345" width="70" height="80" fill="#f5d8ae" />
    <rect x="395" y="300" width="70" height="125" fill="#75d6ff" />
    <rect x="485" y="365" width="70" height="60" fill="#7ee7c1" />
    <path d="M265 635 H535" stroke="#7ad8ff" stroke-width="10" stroke-linecap="round" opacity="0.5" />
    <path d="M400 245 V345" stroke="#f5d8ae" stroke-width="12" stroke-linecap="round" />
    <path d="M350 276 H450" stroke="#f5d8ae" stroke-width="12" stroke-linecap="round" />
  </g>
  <g>
    <rect x="870" y="245" width="210" height="105" rx="26" fill="#16384f" fill-opacity="0.12" />
    <rect x="1130" y="245" width="210" height="105" rx="26" fill="#16384f" fill-opacity="0.12" />
    <rect x="1000" y="520" width="210" height="105" rx="26" fill="#16384f" fill-opacity="0.12" />
    <path d="M1080 297 H1130" stroke="#16384f" stroke-width="10" stroke-linecap="round" />
    <path d="M1130 297 H1205" stroke="#16384f" stroke-width="10" stroke-linecap="round" />
    <path d="M1235 350 V520" stroke="#16384f" stroke-width="10" stroke-linecap="round" />
    <path d="M1105 520 H1175" stroke="#16384f" stroke-width="10" stroke-linecap="round" />
    <circle cx="1080" cy="297" r="16" fill="#7ee7c1" />
    <circle cx="1235" cy="297" r="16" fill="#75d6ff" />
    <circle cx="1235" cy="520" r="16" fill="#f2ba76" />
    <circle cx="1105" cy="520" r="16" fill="#16384f" />
  </g>
  <g>
    <path d="M905 690 H1325" stroke="#16384f" stroke-width="10" stroke-linecap="round" opacity="0.28" />
    <rect x="930" y="560" width="72" height="130" rx="16" fill="#75d6ff" />
    <rect x="1035" y="505" width="72" height="185" rx="16" fill="#7ee7c1" />
    <rect x="1140" y="455" width="72" height="235" rx="16" fill="#f5d8ae" />
    <rect x="1245" y="395" width="72" height="295" rx="16" fill="#183a52" />
  </g>
</svg>
